<?xml version="1.0" encoding="iso-8859-1"?>
<!-- Generator: Adobe Illustrator 19.0.0, SVG Export Plug-In . SVG Version: 6.00 Build 0)  -->
<svg version="1.1" id="Layer_1" xmlns="http://www.w3.org/2000/svg" xmlns:xlink="http://www.w3.org/1999/xlink" x="0px" y="0px"
	 viewBox="0 0 512 512" style="enable-background:new 0 0 512 512;" xml:space="preserve">
<circle style="fill:#FEE187;" cx="256" cy="256" r="256"/>
<path style="fill:#FFC61B;" d="M510.835,280.405L402.532,172.103l1.957,60.678l-34.137,34.137H206.581v14.574h-86.195l37.926,61.278
	l161.268,161.268C422.581,477.713,500.57,388.922,510.835,280.405z"/>
<path style="fill:#43739B;" d="M351.668,140.921h-67.224c-5.711,0-10.343,4.632-10.343,10.343s4.632,10.343,10.343,10.343h67.222
	c19.968,0,36.212,16.244,36.212,36.212v30.808c0,19.968-16.244,36.212-36.212,36.212H129.543l38.462-38.464
	c4.041-4.039,4.041-10.588,0-14.626c-4.037-4.041-10.59-4.041-14.626,0L96.49,268.64c-4.041,4.039-4.041,10.588,0,14.626
	l56.889,56.889c2.019,2.02,4.667,3.031,7.313,3.031c2.646,0,5.294-1.01,7.313-3.031c4.041-4.039,4.041-10.588,0-14.626l-40-40.001
	h223.663c31.373,0,56.899-25.526,56.899-56.899V197.82C408.566,166.447,383.042,140.921,351.668,140.921z"/>
<g>
</g>
<g>
</g>
<g>
</g>
<g>
</g>
<g>
</g>
<g>
</g>
<g>
</g>
<g>
</g>
<g>
</g>
<g>
</g>
<g>
</g>
<g>
</g>
<g>
</g>
<g>
</g>
<g>
</g>
</svg>
