<?xml version="1.0" encoding="iso-8859-1"?>
<!-- Generator: Adobe Illustrator 19.0.0, SVG Export Plug-In . SVG Version: 6.00 Build 0)  -->
<svg version="1.1" id="Layer_1" xmlns="http://www.w3.org/2000/svg" xmlns:xlink="http://www.w3.org/1999/xlink" x="0px" y="0px"
	 viewBox="0 0 512.001 512.001" style="enable-background:new 0 0 512.001 512.001;" xml:space="preserve">
<path style="fill:#005A95;" d="M504.938,146.141L365.861,7.064C361.338,2.541,355.203,0,348.807,0s-12.531,2.541-17.054,7.064
	L7.065,331.751c-4.523,4.523-7.064,10.658-7.064,17.055s2.541,12.531,7.064,17.054l139.078,139.077
	c4.71,4.71,10.883,7.064,17.054,7.064c6.172,0,12.345-2.354,17.054-7.064L504.938,180.25
	C514.355,170.83,514.355,155.56,504.938,146.141z"/>
<path style="fill:#31AAEF;" d="M169.323,169.493L7.065,331.751c-4.523,4.523-7.064,10.658-7.064,17.055
	c0,6.397,2.541,12.531,7.064,17.054l139.077,139.077c4.71,4.71,10.883,7.064,17.055,7.064c6.172,0,12.344-2.354,17.054-7.064
	L342.508,342.68L169.323,169.493z"/>
<rect x="61.446" y="132.891" transform="matrix(-0.7071 0.7071 -0.7071 -0.7071 618.6975 254.4271)" style="fill:#003C61;" width="390.418" height="244.918"/>
<rect x="90.224" y="202.37" transform="matrix(-0.7071 0.7071 -0.7071 -0.7071 549.2176 422.1656)" style="fill:#005A95;" width="193.903" height="244.918"/>
<path style="fill:#CF9B00;" d="M225.471,440.727L71.274,286.529c-13.036-13.036-13.036-34.172,0-47.208L239.323,71.274
	c13.036-13.036,34.172-13.036,47.208,0l154.198,154.198c13.036,13.036,13.036,34.172,0,47.208L272.68,440.727
	C259.643,453.764,238.508,453.764,225.471,440.727z"/>
<path style="fill:#F7DC4D;" d="M155.213,155.384l-84.877,84.877c-12.517,12.517-12.517,32.812,0,45.329l156.076,156.076
	c12.517,12.517,32.812,12.517,45.329,0l84.877-84.877L155.213,155.384z"/>
<g>
	<path style="fill:#00558A;" d="M175.508,280.699l33.793-33.793c9.42-9.419,9.42-24.69,0-34.108c-9.42-9.418-24.69-9.42-34.108,0
		L141.4,246.591c-9.42,9.419-9.42,24.69,0,34.108S166.09,290.118,175.508,280.699z"/>
	<path style="fill:#00558A;" d="M275.371,220.702l-79.93,79.93c-9.42,9.419-9.42,24.69,0,34.108c9.42,9.419,24.69,9.419,34.108,0
		l79.93-79.93c9.419-9.42,9.419-24.69,0-34.108C300.061,211.284,284.79,211.284,275.371,220.702z"/>
</g>
<g>
</g>
<g>
</g>
<g>
</g>
<g>
</g>
<g>
</g>
<g>
</g>
<g>
</g>
<g>
</g>
<g>
</g>
<g>
</g>
<g>
</g>
<g>
</g>
<g>
</g>
<g>
</g>
<g>
</g>
</svg>
