<?xml version="1.0" encoding="iso-8859-1"?>
<!-- Generator: Adobe Illustrator 19.0.0, SVG Export Plug-In . SVG Version: 6.00 Build 0)  -->
<svg version="1.1" id="Layer_1" xmlns="http://www.w3.org/2000/svg" xmlns:xlink="http://www.w3.org/1999/xlink" x="0px" y="0px"
	 viewBox="0 0 511.999 511.999" style="enable-background:new 0 0 511.999 511.999;" xml:space="preserve">
<path style="fill:#CFDCE5;" d="M416.01,8.822H69.564c-11.987,0-21.709,9.722-21.709,21.709v57.857v20.681v37.176
	c0,11.987,9.721,21.709,21.709,21.709H416.01c11.987,0,21.708-9.722,21.708-21.709V88.387V61.328V30.53
	C437.718,18.543,427.998,8.822,416.01,8.822z"/>
<path style="fill:#BAC6CC;" d="M416.01,131.022H69.564c-11.987,0-21.709-9.722-21.709-21.709v36.93
	c0,11.987,9.721,21.709,21.709,21.709H416.01c11.987,0,21.708-9.722,21.708-21.709v-36.93
	C437.718,121.3,427.998,131.022,416.01,131.022z"/>
<path style="fill:#4EBFED;" d="M437.718,30.53v30.798c-64.977,0-64.977,47.739-129.955,47.739s-64.977-47.739-129.955-47.739
	s-64.976,47.74-129.953,47.74V88.387V30.53c0-11.987,9.721-21.708,21.708-21.708H416.01C427.998,8.822,437.718,18.543,437.718,30.53
	z"/>
<path style="fill:#FF6F52;" d="M280.619,487.859c0.186,8.408-6.588,15.319-14.984,15.319h-45.696
	c-8.396,0-15.17-6.911-14.984-15.319l4.631-219.675h33.2h33.2L280.619,487.859z"/>
<path style="fill:#E25749;" d="M226.127,487.861l4.632-219.675h-21.173l-4.632,219.675c-0.186,8.408,6.588,15.319,14.984,15.319
	h21.172C232.714,503.179,225.941,496.269,226.127,487.861z"/>
<path d="M458.095,79.565H446.67V30.531C446.67,13.696,432.974,0,416.14,0H140.369c-4.872,0-8.822,3.95-8.822,8.822
	s3.95,8.822,8.822,8.822H416.14c7.106,0,12.887,5.781,12.887,12.887V52.81c-29.742,2.048-46.472,14.328-61.379,25.279
	c-15.509,11.394-30.158,22.156-59.754,22.156c-13.253,0-24.181-2.044-34.389-6.434c-4.477-1.922-9.664,0.144-11.59,4.619
	c-1.924,4.476,0.143,9.665,4.619,11.59c12.314,5.294,25.844,7.869,41.36,7.869c35.381,0,53.88-13.591,70.201-25.583
	c13.883-10.199,27.087-19.887,50.932-21.808v75.743c0,7.106-5.781,12.887-12.887,12.887H69.693c-7.106,0-12.887-5.781-12.887-12.887
	v-28.655c29.742-2.048,46.472-14.328,61.379-25.279c15.509-11.394,30.158-22.156,59.754-22.156
	c29.597,0,44.245,10.763,59.754,22.157l1.127,0.828c3.926,2.882,9.448,2.036,12.332-1.893c2.883-3.928,2.035-9.449-1.893-12.332
	l-1.12-0.822c-16.321-11.991-34.82-25.583-70.202-25.583c-35.381,0-53.88,13.591-70.201,25.583
	C93.854,88.289,80.65,97.977,56.805,99.898V30.531c0.002-7.106,5.783-12.887,12.888-12.887h37.86c4.872,0,8.822-3.95,8.822-8.822
	S112.426,0,107.554,0h-37.86c-16.835,0-30.53,13.696-30.53,30.531v49.035H24.282c-4.872,0-8.822,3.95-8.822,8.822
	c0,4.872,3.95,8.822,8.822,8.822h14.881v49.035c0,16.835,13.696,30.531,30.531,30.531H416.14c16.835,0,30.531-13.696,30.531-30.531
	V97.209h11.425c11.469,0,20.8,9.331,20.8,20.8v70.19c0,11.469-9.331,20.8-20.8,20.8H272.538c-21.197,0-38.444,17.245-38.444,38.444
	v11.92h-40.007c-4.872,0-8.822,3.95-8.822,8.822c0,4.872,3.95,8.822,8.822,8.822h6.618l-4.442,210.657
	c-0.142,6.457,2.267,12.554,6.784,17.172c4.518,4.619,10.563,7.162,17.021,7.162h45.697c6.458,0,12.501-2.544,17.021-7.162
	c4.517-4.618,6.926-10.716,6.785-17.164l-0.91-43.187c-0.103-4.871-4.122-8.749-9.007-8.634c-4.871,0.102-8.736,4.136-8.634,9.007
	l0.912,43.195c0.036,1.67-0.588,3.249-1.757,4.445c-1.172,1.197-2.736,1.857-4.407,1.857h-45.697c-1.67,0-3.236-0.66-4.407-1.857
	c-1.17-1.196-1.794-2.775-1.757-4.453l4.45-211.038h49.126l2.834,134.393c0.101,4.807,4.031,8.636,8.817,8.636
	c0.062,0,0.126,0,0.189-0.001c4.871-0.102,8.736-4.136,8.634-9.007l-2.825-134.021h6.618c4.872,0,8.822-3.95,8.822-8.822
	c0-4.872-3.95-8.822-8.822-8.822h-40.007v-11.92c0-11.469,9.331-20.8,20.8-20.8h185.557c21.197,0,38.444-17.246,38.444-38.444
	v-70.19C496.54,96.811,479.293,79.565,458.095,79.565z"/>
<g>
</g>
<g>
</g>
<g>
</g>
<g>
</g>
<g>
</g>
<g>
</g>
<g>
</g>
<g>
</g>
<g>
</g>
<g>
</g>
<g>
</g>
<g>
</g>
<g>
</g>
<g>
</g>
<g>
</g>
</svg>
