<?xml version="1.0" encoding="iso-8859-1"?>
<!-- Generator: Adobe Illustrator 19.0.0, SVG Export Plug-In . SVG Version: 6.00 Build 0)  -->
<svg version="1.1" id="Layer_1" xmlns="http://www.w3.org/2000/svg" xmlns:xlink="http://www.w3.org/1999/xlink" x="0px" y="0px"
	 viewBox="0 0 512 512" style="enable-background:new 0 0 512 512;" xml:space="preserve">
<path style="fill:#CCCCCC;" d="M408.631,239.424c-17.265,0-31.311-14.046-31.311-31.311V71.831c0-7.109-5.783-12.893-12.893-12.893
	h-9.663l-9.737-7.662l9.737-10.756h9.663c17.265,0,31.311,14.046,31.311,31.311v136.282c0,7.109,5.783,12.893,12.893,12.893V239.424
	z"/>
<polygon style="fill:#2BA5F7;" points="354.764,100.391 354.764,386.855 298.368,410.43 249.781,386.855 249.781,100.391 "/>
<polygon style="fill:#F95428;" points="208.352,54.96 208.352,434.644 156.548,448.699 103.369,434.644 103.369,54.96 "/>
<polygon style="fill:#F7B239;" points="103.369,434.644 129.486,473.138 155.861,490.242 182.235,473.125 208.352,434.644 "/>
<path style="fill:#F95428;" d="M182.235,473.125L155.861,512l-26.375-38.862c7.527-5.12,16.601-8.104,26.375-8.104
	C165.647,465.034,174.721,468.017,182.235,473.125z"/>
<rect x="103.375" y="56.188" style="fill:#F7B239;" width="104.983" height="37.745"/>
<rect x="265.442" y="1.842" style="fill:#2BA5F7;" width="73.673" height="51.571"/>
<rect x="265.442" y="1.842" style="fill:#2197D8;" width="28.634" height="38.678"/>
<g>
	<polygon style="fill:#CCCCCC;" points="354.764,40.52 354.764,116.034 249.781,116.034 249.781,40.52 265.436,40.52 339.109,40.52 
			"/>
	<path style="fill:#CCCCCC;" d="M354.764,386.855c0,41.588-14.759,81.642-41.379,113.149c-3.487,4.15-7.195,8.153-11.112,11.996
		c-3.905-3.843-7.613-7.846-11.125-11.996c-26.596-31.507-41.367-71.561-41.367-113.149H354.764z"/>
</g>
<g>
	<rect x="249.787" y="40.52" style="fill:#B3B3B3;" width="38.064" height="75.514"/>
	<path style="fill:#B3B3B3;" d="M287.845,386.855c0,47.065,5.194,92.164,14.428,125.145c-33.57-32.981-52.492-78.081-52.492-125.145
		H287.845z"/>
</g>
<rect x="249.787" y="116.034" style="fill:#2197D8;" width="38.064" height="270.82"/>
<path style="fill:#2BA5F7;" d="M208.352,27.627v34.994H103.369V27.627C103.369,12.365,115.734,0,130.996,0h49.729
	C195.975,0,208.352,12.365,208.352,27.627z"/>
<path style="fill:#E54728;" d="M150.458,473.138L155.861,512l-26.375-38.862c5.845-3.978,12.61-6.655,19.916-7.65L150.458,473.138z"
	/>
<path style="fill:#E09B2D;" d="M145.117,434.644l4.285,30.844c-7.306,0.995-14.071,3.671-19.916,7.65l-26.117-38.494H145.117z"/>
<rect x="103.375" y="62.622" style="fill:#E09B2D;" width="41.748" height="31.311"/>
<path style="fill:#2197D8;" d="M172.744,0c-15.262,0-27.627,12.365-27.627,27.627v34.994h-41.748V27.627
	C103.369,12.365,115.734,0,130.996,0H172.744z"/>
<rect x="103.375" y="93.933" style="fill:#E54728;" width="41.748" height="340.711"/>
<path style="fill:#2BA5F7;" d="M313.385,500.004c-3.487,4.15-7.195,8.153-11.112,11.996c-3.905-3.843-7.613-7.846-11.125-11.996
	c2.922-2.701,6.827-4.359,11.125-4.359C306.57,495.645,310.462,497.29,313.385,500.004z"/>
<g>
</g>
<g>
</g>
<g>
</g>
<g>
</g>
<g>
</g>
<g>
</g>
<g>
</g>
<g>
</g>
<g>
</g>
<g>
</g>
<g>
</g>
<g>
</g>
<g>
</g>
<g>
</g>
<g>
</g>
</svg>
