<?xml version="1.0" encoding="iso-8859-1"?>
<!-- Generator: Adobe Illustrator 19.0.0, SVG Export Plug-In . SVG Version: 6.00 Build 0)  -->
<svg version="1.1" id="Layer_1" xmlns="http://www.w3.org/2000/svg" xmlns:xlink="http://www.w3.org/1999/xlink" x="0px" y="0px"
	 viewBox="0 0 512 512" style="enable-background:new 0 0 512 512;" xml:space="preserve">
<polygon style="fill:#EFEFEF;" points="501.961,92.863 501.961,481.882 10.039,481.882 10.039,30.118 129.255,30.118 
	129.255,92.863 "/>
<rect x="129.255" y="30.118" style="fill:#E8594F;" width="119.216" height="62.745"/>
<rect x="248.471" y="30.118" style="fill:#F4AD47;" width="253.49" height="62.745"/>
<g>
	<path style="fill:#231F20;" d="M501.961,20.078h-253.49H129.255H10.039C4.495,20.078,0,24.573,0,30.118v451.765
		c0,5.544,4.495,10.039,10.039,10.039h491.922c5.544,0,10.039-4.495,10.039-10.039V92.863V30.118
		C512,24.573,507.505,20.078,501.961,20.078z M491.922,82.824H258.51V40.157h233.412V82.824z M238.431,82.824h-99.137V40.157h99.137
		V82.824z M491.922,471.843H20.078V40.157h99.137v52.706c0,5.544,4.495,10.039,10.039,10.039h119.216h243.451V471.843z"/>
	<circle style="fill:#231F20;" cx="468.078" cy="61.49" r="10.039"/>
	<circle style="fill:#231F20;" cx="434.196" cy="61.49" r="10.039"/>
	<circle style="fill:#231F20;" cx="405.333" cy="61.49" r="10.039"/>
	<rect x="36.392" y="51.451" style="fill:#231F20;" width="66.51" height="20.078"/>
	<rect x="155.608" y="51.451" style="fill:#231F20;" width="18.824" height="20.078"/>
	<rect x="186.98" y="51.451" style="fill:#231F20;" width="38.902" height="20.078"/>
	<path style="fill:#231F20;" d="M320.791,272.868c1.974,2.6,4.971,3.967,8.001,3.967c2.117,0,4.25-0.666,6.065-2.046l71.529-54.339
		c2.5-1.899,3.967-4.856,3.967-7.994c0-3.137-1.467-6.095-3.967-7.994l-71.529-54.339c-4.413-3.354-10.712-2.495-14.066,1.921
		c-3.354,4.415-2.493,10.713,1.921,14.066l61.006,46.345l-61.006,46.345C318.297,262.155,317.436,268.454,320.791,272.868z"/>
	<path style="fill:#231F20;" d="M105.614,220.45l71.529,54.339c1.815,1.379,3.948,2.046,6.065,2.046
		c3.031,0,6.027-1.367,8.001-3.967c3.354-4.415,2.493-10.713-1.921-14.066l-61.006-46.345l61.006-46.345
		c4.416-3.353,5.276-9.651,1.921-14.066c-3.354-4.416-9.654-5.276-14.066-1.921l-71.529,54.339c-2.5,1.899-3.967,4.856-3.967,7.994
		S103.114,218.552,105.614,220.45z"/>
	<path style="fill:#231F20;" d="M218.205,275.402c1.618,0.971,3.4,1.434,5.158,1.434c3.41,0,6.734-1.737,8.616-4.873l65.255-108.678
		c2.854-4.754,1.315-10.92-3.438-13.775c-4.754-2.856-10.921-1.314-13.775,3.438l-65.255,108.678
		C211.912,266.381,213.451,272.548,218.205,275.402z"/>
	<path style="fill:#231F20;" d="M64,351.373h18.824c5.544,0,10.039-4.495,10.039-10.039s-4.495-10.039-10.039-10.039H64
		c-5.544,0-10.039,4.495-10.039,10.039S58.456,351.373,64,351.373z"/>
	<path style="fill:#231F20;" d="M115.451,331.294c-5.544,0-10.039,4.495-10.039,10.039s4.495,10.039,10.039,10.039h75.294
		c5.544,0,10.039-4.495,10.039-10.039s-4.495-10.039-10.039-10.039H115.451z"/>
	<path style="fill:#231F20;" d="M217.098,341.333c0,5.544,4.495,10.039,10.039,10.039h71.529c5.544,0,10.039-4.495,10.039-10.039
		s-4.495-10.039-10.039-10.039h-71.529C221.593,331.294,217.098,335.789,217.098,341.333z"/>
	<path style="fill:#231F20;" d="M64,391.529h89.098c5.544,0,10.039-4.495,10.039-10.039s-4.495-10.039-10.039-10.039H64
		c-5.544,0-10.039,4.495-10.039,10.039S58.456,391.529,64,391.529z"/>
	<path style="fill:#231F20;" d="M222.118,371.451H194.51c-5.544,0-10.039,4.495-10.039,10.039s4.495,10.039,10.039,10.039h27.608
		c5.544,0,10.039-4.495,10.039-10.039S227.662,371.451,222.118,371.451z"/>
	<path style="fill:#231F20;" d="M357.647,371.451H254.745c-5.544,0-10.039,4.495-10.039,10.039s4.495,10.039,10.039,10.039h102.902
		c5.544,0,10.039-4.495,10.039-10.039S363.191,371.451,357.647,371.451z"/>
	<path style="fill:#231F20;" d="M79.059,411.608H64c-5.544,0-10.039,4.495-10.039,10.039S58.456,431.686,64,431.686h15.059
		c5.544,0,10.039-4.495,10.039-10.039S84.603,411.608,79.059,411.608z"/>
	<path style="fill:#231F20;" d="M171.922,411.608H122.98c-5.544,0-10.039,4.495-10.039,10.039s4.495,10.039,10.039,10.039h48.941
		c5.544,0,10.039-4.495,10.039-10.039S177.466,411.608,171.922,411.608z"/>
</g>
<g>
</g>
<g>
</g>
<g>
</g>
<g>
</g>
<g>
</g>
<g>
</g>
<g>
</g>
<g>
</g>
<g>
</g>
<g>
</g>
<g>
</g>
<g>
</g>
<g>
</g>
<g>
</g>
<g>
</g>
</svg>
