<?xml version="1.0" encoding="iso-8859-1"?>
<!-- Generator: Adobe Illustrator 19.0.0, SVG Export Plug-In . SVG Version: 6.00 Build 0)  -->
<svg version="1.1" id="Layer_1" xmlns="http://www.w3.org/2000/svg" xmlns:xlink="http://www.w3.org/1999/xlink" x="0px" y="0px"
	 viewBox="0 0 392.598 392.598" style="enable-background:new 0 0 392.598 392.598;" xml:space="preserve">
<path style="fill:#FFFFFF;" d="M328.695,21.786H32.743c-6.012,0-10.925,4.848-10.925,10.925v327.111
	c0,6.012,4.848,10.925,10.925,10.925h327.111c6.012,0,10.925-4.848,10.925-10.925V63.871L328.695,21.786z"/>
<path style="fill:#56ACE0;" d="M43.604,65.422v198.723h71.564c6.012,0,10.925,4.849,10.925,10.925
	c0,6.012-4.848,10.925-10.925,10.925H43.604v27.152h38.788c6.012,0,10.925,4.848,10.925,10.925s-4.848,10.925-10.925,10.925H45.156
	c3.168,8.21,11.055,14.093,20.299,14.093h261.754c12.024,0,21.786-9.762,21.786-21.786V81.972c0-5.818-2.327-11.378-6.4-15.451
	l-16.549-16.549c-2.909-2.909-6.594-4.848-10.537-5.818v74.149c0,6.012-4.848,10.925-10.925,10.925H88.016
	c-6.012,0-10.925-4.848-10.925-10.925V43.572H65.455C53.43,43.572,43.604,53.398,43.604,65.422z"/>
<path style="fill:#194F82;" d="M389.398,51.717L340.849,3.168C338.844,1.164,336.065,0,333.091,0H32.743
	C14.707,0,0.032,14.675,0.032,32.711v327.111c0,18.101,14.675,32.776,32.711,32.776h327.111c18.036,0,32.711-14.675,32.711-32.711
	V59.41C392.566,56.501,391.402,53.786,389.398,51.717z M98.941,21.786h194.715v85.592H98.941V21.786z M370.78,359.822
	c0,6.012-4.848,10.925-10.925,10.925H32.743c-6.012,0-10.925-4.848-10.925-10.925V32.711c0-6.012,4.848-10.925,10.925-10.925h44.412
	v96.582c0,6.012,4.848,10.925,10.925,10.925h216.501c6.012,0,10.925-4.848,10.925-10.925V21.786h13.188l42.085,42.085
	L370.78,359.822L370.78,359.822z"/>
<g>
	<path style="fill:#FFC10D;" d="M196.299,179.006c-26.505,0-47.968,21.527-47.968,47.968c0,26.505,21.527,47.968,47.968,47.968
		c26.505,0,47.968-21.527,47.968-47.968S222.804,179.006,196.299,179.006z"/>
	<rect x="98.941" y="21.786" style="fill:#FFC10D;" width="194.715" height="85.592"/>
</g>
<g>
	<path style="fill:#194F82;" d="M196.299,157.22c-38.465,0-69.883,31.289-69.883,69.883c0,38.465,31.289,69.883,69.883,69.883
		c38.465,0,69.883-31.289,69.883-69.883S234.764,157.22,196.299,157.22z M196.299,275.071c-26.505,0-47.968-21.527-47.968-47.968
		c0-26.505,21.527-47.968,47.968-47.968c26.505,0,47.968,21.527,47.968,47.968S222.804,275.071,196.299,275.071z"/>
	<path style="fill:#194F82;" d="M255.192,35.232c-6.012,0-10.925,4.848-10.925,10.925v36.978c0,6.012,4.848,10.925,10.925,10.925
		c6.012,0,10.925-4.848,10.925-10.925V46.093C266.182,40.081,261.204,35.232,255.192,35.232z"/>
</g>
<g>
</g>
<g>
</g>
<g>
</g>
<g>
</g>
<g>
</g>
<g>
</g>
<g>
</g>
<g>
</g>
<g>
</g>
<g>
</g>
<g>
</g>
<g>
</g>
<g>
</g>
<g>
</g>
<g>
</g>
</svg>
