<svg version="1.1" id="Layer_1" xmlns="http://www.w3.org/2000/svg" xmlns:xlink="http://www.w3.org/1999/xlink" x="0px"
	y="0px" viewBox="0 0 512 512" style="enable-background:new 0 0 512 512;" xml:space="preserve">
	<polyline style="fill:#8CC1EA;" points="453.953,386.734 503.037,386.734 503.037,126.461 143.412,126.461 143.412,386.734 
	424.076,386.734 " />
	<polygon style="fill:#79B1D6;" points="143.412,164.704 208.136,222.628 230.979,243.071 323.224,325.626 503.037,164.704 
	503.037,126.461 143.412,126.461 " />
	<polyline style="fill:#8CC1EA;"
		points="143.412,126.461 208.136,184.385 230.979,204.828 323.224,287.383 503.037,126.461 " />
	<path d="M503.037,116.9H143.412c-4.95,0-8.963,4.013-8.963,8.963v260.273c0,4.95,4.013,8.963,8.963,8.963h280.663
	c4.95,0,8.963-4.013,8.963-8.963c0-4.95-4.013-8.963-8.963-8.963H166.869l121.955-109.147l28.423,25.438
	c1.702,1.523,3.839,2.284,5.977,2.284s4.276-0.761,5.977-2.284l28.419-25.434l121.952,109.143h-25.619
	c-4.95,0-8.963,4.013-8.963,8.963c0,4.95,4.013,8.963,8.963,8.963h49.084c4.95,0,8.963-4.013,8.963-8.963V125.863
	C512,120.913,507.987,116.9,503.037,116.9z M323.224,274.757l-86.268-77.204c-3.688-3.301-9.355-2.988-12.656,0.702
	c-3.301,3.689-2.988,9.355,0.702,12.657l50.381,45.087L152.375,366.088V145.915l49.783,44.553c1.71,1.531,3.846,2.284,5.974,2.284
	c2.461,0,4.912-1.007,6.682-2.985c3.301-3.689,2.988-9.355-0.702-12.656l-47.245-42.281h312.713L323.224,274.757z M494.074,145.914
	v220.18L371.062,256.001L494.074,145.914z" />
	<path d="M32.865,166.372h69.91c4.95,0,8.963-4.013,8.963-8.963s-4.013-8.963-8.963-8.963h-69.91c-4.95,0-8.963,4.013-8.963,8.963
	S27.915,166.372,32.865,166.372z" />
	<path d="M108.75,273.925H44.816c-4.95,0-8.963,4.013-8.963,8.963c0,4.95,4.013,8.963,8.963,8.963h63.934
	c4.95,0,8.963-4.013,8.963-8.963C117.714,277.938,113.7,273.925,108.75,273.925z" />
	<path d="M8.963,238.075h75.885c4.95,0,8.963-4.013,8.963-8.963c0-4.95-4.013-8.963-8.963-8.963H8.963
	c-4.95,0-8.963,4.013-8.963,8.963C0,234.062,4.013,238.075,8.963,238.075z" />
	<path d="M84.848,345.628h-7.351c-4.95,0-8.963,4.013-8.963,8.963s4.013,8.963,8.963,8.963h7.351c4.95,0,8.963-4.013,8.963-8.963
	S89.798,345.628,84.848,345.628z" />
	<path d="M47.62,345.628H8.963c-4.95,0-8.963,4.013-8.963,8.963s4.013,8.963,8.963,8.963H47.62c4.95,0,8.963-4.013,8.963-8.963
	S52.57,345.628,47.62,345.628z" />
	<g>
	</g>
	<g>
	</g>
	<g>
	</g>
	<g>
	</g>
	<g>
	</g>
	<g>
	</g>
	<g>
	</g>
	<g>
	</g>
	<g>
	</g>
	<g>
	</g>
	<g>
	</g>
	<g>
	</g>
	<g>
	</g>
	<g>
	</g>
	<g>
	</g>
</svg>