<?xml version="1.0" encoding="iso-8859-1"?>
<!-- Generator: Adobe Illustrator 19.0.0, SVG Export Plug-In . SVG Version: 6.00 Build 0)  -->
<svg version="1.1" id="Layer_1" xmlns="http://www.w3.org/2000/svg" xmlns:xlink="http://www.w3.org/1999/xlink" x="0px" y="0px"
	 viewBox="0 0 512 512" style="enable-background:new 0 0 512 512;" xml:space="preserve">
<path d="M506.795,0.988c-3.072-1.365-6.741-0.683-9.216,1.707L107.093,373.724c-20.309,22.187-15.445,56.149,11.776,82.517
	c15.104,14.592,35.925,24.917,57.344,24.917c16.043,0,32.427-5.803,47.019-19.968l286.123-276.139
	c1.707-1.621,2.645-3.84,2.645-6.144V8.839C512,5.425,509.952,2.353,506.795,0.988z M211.371,448.903
	c-15.445,15.019-33.707,17.493-50.432,12.8c-11.264-3.243-21.845-9.643-30.208-17.749c-16.469-16.043-27.051-41.216-11.52-58.283
	l71.851-68.267c0.256,0.341,32.256,36.608,53.504,60.672c10.581,11.947,18.517,20.907,18.517,20.907L211.371,448.903z
	 M275.371,387.121c0,0-7.851-8.789-18.517-20.651c-0.085-0.085-0.256-0.256-0.341-0.341c-21.248-23.808-53.248-59.648-53.675-59.904
	l60.245-57.259c0,0,32.683,36.608,54.016,60.416c10.325,11.435,17.92,19.968,18.091,20.053L275.371,387.121z M494.933,175.324
	L347.051,318.001c-0.085-0.085-7.595-8.619-17.749-20.139c-21.248-23.893-53.845-60.672-53.845-60.672L494.933,28.721V175.324z"/>
<path style="fill:#FDB50D;" d="M494.933,28.721v112.384L329.301,297.863c-21.248-23.893-53.845-60.672-53.845-60.672L494.933,28.721
	z"/>
<path style="fill:#F6981E;" d="M494.933,141.105v34.219L347.051,318.001c-0.085-0.085-7.595-8.619-17.749-20.139L494.933,141.105z"
	/>
<path style="fill:#7E939E;" d="M335.189,329.436l-59.819,57.685c0,0-7.851-8.789-18.517-20.651l60.245-57.088
	C327.424,320.817,335.019,329.351,335.189,329.436z"/>
<path style="fill:#AFAFAF;" d="M317.099,309.383l-60.245,57.088c-0.085-0.085-0.256-0.256-0.341-0.341
	c-21.248-23.808-53.248-59.648-53.675-59.904l60.245-57.259C263.083,248.967,295.765,285.575,317.099,309.383z"/>
<path style="fill:#CC004E;" d="M244.565,378.076l-83.627,83.627c-11.264-3.243-21.845-9.643-30.208-17.749
	c-16.469-16.043-27.051-41.216-11.52-58.283l71.851-68.267C191.317,317.745,223.317,354.012,244.565,378.076z"/>
<path d="M93.867,494.641H8.533c-4.719,0-8.533,3.823-8.533,8.533s3.814,8.533,8.533,8.533h85.333c4.719,0,8.533-3.823,8.533-8.533
	S98.586,494.641,93.867,494.641z"/>
<path d="M503.467,494.641H264.533c-4.719,0-8.533,3.823-8.533,8.533s3.814,8.533,8.533,8.533h238.933
	c4.719,0,8.533-3.823,8.533-8.533S508.186,494.641,503.467,494.641z"/>
<path style="fill:#9B0045;" d="M263.083,398.983l-51.712,49.92c-15.445,15.019-33.707,17.493-50.432,12.8l83.627-83.627
	C255.147,390.023,263.083,398.983,263.083,398.983z"/>
<g>
</g>
<g>
</g>
<g>
</g>
<g>
</g>
<g>
</g>
<g>
</g>
<g>
</g>
<g>
</g>
<g>
</g>
<g>
</g>
<g>
</g>
<g>
</g>
<g>
</g>
<g>
</g>
<g>
</g>
</svg>
