<?xml version="1.0" encoding="iso-8859-1"?>
<!-- Generator: Adobe Illustrator 19.0.0, SVG Export Plug-In . SVG Version: 6.00 Build 0)  -->
<svg version="1.1" id="Layer_1" xmlns="http://www.w3.org/2000/svg" xmlns:xlink="http://www.w3.org/1999/xlink" x="0px" y="0px"
	 viewBox="0 0 512 512" style="enable-background:new 0 0 512 512;" xml:space="preserve">
<rect x="4" y="109.852" style="fill:#FFFFFF;" width="504" height="358.496"/>
<g>
	<polygon style="fill:#E2E2E2;" points="369.968,431.172 142.032,431.172 104.664,459.588 407.336,459.588 	"/>
	<polygon style="fill:#E2E2E2;" points="113.32,431.172 47.632,431.172 10.256,459.588 76.072,459.588 	"/>
	<polygon style="fill:#E2E2E2;" points="464.368,431.172 398.68,431.172 435.928,459.588 501.744,459.588 	"/>
	<polygon style="fill:#E2E2E2;" points="369.968,147.788 142.032,147.788 104.664,119.372 407.336,119.372 	"/>
	<polygon style="fill:#E2E2E2;" points="113.32,147.788 47.632,147.788 10.256,119.372 76.072,119.372 	"/>
	<polygon style="fill:#E2E2E2;" points="464.368,147.788 398.68,147.788 435.928,119.372 501.744,119.372 	"/>
</g>
<path style="fill:#E5E5E5;" d="M504,113.852v350.496H8V113.852H504 M512,105.852H0v366.496h512V105.852L512,105.852z"/>
<path d="M0,119.372V55.636c0-8.8,7.2-16,16-16h479.96c8.8,0,16,7.2,16,16v63.728H0V119.372z"/>
<polygon style="fill:#FFFFFF;" points="471.624,101.508 171.536,101.508 200.24,57.508 471.624,57.508 "/>
<circle style="fill:#E21B1B;" cx="53.904" cy="78.908" r="13.608"/>
<circle style="fill:#939393;" cx="89.976" cy="78.908" r="13.608"/>
<circle style="fill:#E2E2E2;" cx="126.056" cy="78.908" r="13.608"/>
<path d="M215.624,71.244l1.912,8.312c0.416,1.952,0.832,3.944,1.168,5.936h0.08c0.376-1.992,0.976-4.024,1.504-5.896l2.368-8.352
	h3.76l2.296,8.128c0.56,2.144,1.048,4.136,1.464,6.128h0.08c0.296-1.992,0.712-3.984,1.2-6.128l2.032-8.128h4.544l-5.752,18.312
	h-4.288l-2.176-7.448c-0.56-1.912-0.976-3.648-1.392-5.864h-0.08c-0.376,2.256-0.856,4.064-1.392,5.864l-2.328,7.448h-4.328
	l-5.416-18.312H215.624z"/>
<path d="M244.392,71.244l1.912,8.312c0.416,1.952,0.832,3.944,1.168,5.936h0.08c0.376-1.992,0.976-4.024,1.504-5.896l2.368-8.352
	h3.76l2.296,8.128c0.56,2.144,1.048,4.136,1.464,6.128h0.08c0.296-1.992,0.712-3.984,1.2-6.128l2.032-8.128h4.544l-5.752,18.312
	h-4.288l-2.176-7.448c-0.56-1.912-0.976-3.648-1.392-5.864h-0.08c-0.376,2.256-0.856,4.064-1.392,5.864l-2.328,7.448h-4.328
	l-5.416-18.312H244.392z"/>
<path d="M273.16,71.244l1.912,8.312c0.416,1.952,0.832,3.944,1.168,5.936h0.08c0.376-1.992,0.976-4.024,1.504-5.896l2.368-8.352
	h3.76l2.296,8.128c0.56,2.144,1.048,4.136,1.464,6.128h0.08c0.296-1.992,0.712-3.984,1.2-6.128l2.032-8.128h4.544l-5.752,18.312
	h-4.296l-2.176-7.448c-0.56-1.912-0.976-3.648-1.392-5.864h-0.08c-0.376,2.256-0.856,4.064-1.392,5.864l-2.328,7.448h-4.328
	l-5.416-18.312H273.16z"/>
<path d="M296.312,87.004c0-1.736,1.2-2.968,2.856-2.968c1.696,0,2.856,1.2,2.856,2.968c0,1.688-1.128,2.968-2.856,2.968
	C297.488,89.972,296.312,88.692,296.312,87.004z"/>
<polygon points="342.688,464.212 169.312,464.212 193.312,445.964 318.688,445.964 "/>
<rect y="459.596" width="512" height="12.768"/>
<polygon points="501.744,459.588 435.928,459.588 407.336,459.588 104.664,459.588 76.072,459.588 10.256,459.588 0,459.588 
	0,472.356 512,472.356 512,459.588 "/>
<polygon points="440.352,92.508 437.496,89.708 447.384,79.548 436.904,69.324 439.696,66.468 453.04,79.468 "/>
<rect x="421.616" y="77.508" width="26.416" height="4"/>
<path d="M256.136,191.852c-120.352,0-165.76,97.16-165.76,97.16s45.128,97.16,165.48,97.16s165.76-97.16,165.76-97.16
	S376.488,191.852,256.136,191.852z"/>
<circle cx="256" cy="289.036" r="73.232"/>
<circle style="fill:#E21B1B;" cx="256" cy="289.036" r="61.664"/>
<circle style="fill:#FFFFFF;" cx="256" cy="289.036" r="41.752"/>
<circle cx="256" cy="289.036" r="20.728"/>
<g>
</g>
<g>
</g>
<g>
</g>
<g>
</g>
<g>
</g>
<g>
</g>
<g>
</g>
<g>
</g>
<g>
</g>
<g>
</g>
<g>
</g>
<g>
</g>
<g>
</g>
<g>
</g>
<g>
</g>
</svg>
