<?xml version="1.0" encoding="iso-8859-1"?>
<!-- Generator: Adobe Illustrator 19.0.0, SVG Export Plug-In . SVG Version: 6.00 Build 0)  -->
<svg version="1.1" id="Layer_1" xmlns="http://www.w3.org/2000/svg" xmlns:xlink="http://www.w3.org/1999/xlink" x="0px" y="0px"
	 viewBox="0 0 512 512" style="enable-background:new 0 0 512 512;" xml:space="preserve">
<path style="fill:#415E72;" d="M0,355.2v-324c0.104-5.704,4.696-10.296,10.4-10.4h491.2c5.704,0.104,10.296,4.696,10.4,10.4v324H0z"
	/>
<g>
	<path style="fill:#CFDCE5;" d="M512,355.2v41.6c-0.104,5.704-4.696,10.296-10.4,10.4H10.4c-5.704-0.104-10.296-4.696-10.4-10.4
		v-41.6H512z"/>
	<rect x="146.4" y="480.8" style="fill:#CFDCE5;" width="219.2" height="10.4"/>
</g>
<polygon style="fill:#AEC4CE;" points="328.8,480.8 183.2,480.8 193.6,407.2 318.4,407.2 "/>
<rect x="20.8" y="41.6" style="fill:#FFFFFF;" width="470.4" height="292.8"/>
<polygon style="fill:#94A7AF;" points="318.4,407.2 193.6,407.2 187.792,448.28 320.272,420.424 "/>
<g>
	<path style="fill:#415E72;" d="M70.136,121.992c-0.128-2.08,1.448-3.864,3.528-3.992c0.096-0.008,0.2-0.008,0.296-0.008
		c2.208-0.096,4.072,1.616,4.176,3.824c0.096,2.208-1.616,4.072-3.824,4.176c-2.208,0.096-4.072-1.616-4.176-3.824
		C70.136,122.104,70.136,122.048,70.136,121.992z"/>
	<path style="fill:#415E72;" d="M106.632,124.16c-2.784,1.248-5.8,1.856-8.848,1.792c-8.08,0.408-14.968-5.808-15.384-13.888
		c-0.032-0.616-0.024-1.24,0.024-1.856c-0.4-8.648,6.28-15.984,14.928-16.384c0.544-0.024,1.096-0.024,1.64,0.008
		c2.68-0.032,5.328,0.52,7.776,1.6l-1.28,4.328c-2-1.048-4.24-1.552-6.496-1.464c-5.896-0.152-10.792,4.504-10.936,10.4
		c-0.008,0.416,0,0.84,0.04,1.256c-0.528,5.816,3.752,10.96,9.568,11.496c0.376,0.032,0.752,0.048,1.136,0.04
		c2.376,0.008,4.728-0.512,6.88-1.528L106.632,124.16z"/>
	<path style="fill:#415E72;" d="M140.712,109.6c0.72,8.296-5.416,15.6-13.704,16.32c-0.552,0.048-1.104,0.064-1.656,0.056
		c-8.096,0.096-14.736-6.392-14.832-14.496c-0.008-0.456,0.008-0.912,0.048-1.368c-0.728-8.288,5.408-15.592,13.688-16.32
		c0.528-0.048,1.064-0.064,1.6-0.056c8.064-0.168,14.736,6.224,14.904,14.288C140.776,108.552,140.76,109.072,140.712,109.6z
		 M116.24,109.912c0,6.76,3.88,11.848,9.368,11.848c5.352,0,9.368-5.032,9.368-12c0-5.224-2.616-11.848-9.24-11.848
		s-9.488,6.176-9.488,12.032L116.24,109.912z"/>
	<path style="fill:#415E72;" d="M147.76,102.816c0-3.2-0.064-5.8-0.248-8.352h4.904l0.248,4.976h0.192
		c1.88-3.584,5.64-5.784,9.688-5.672c3.936-0.04,7.456,2.448,8.728,6.176h0.128c0.856-1.56,2.032-2.92,3.448-4
		c1.952-1.496,4.368-2.264,6.824-2.168c4.08,0,10.128,2.672,10.128,13.376v18.168h-5.48v-17.472c0-5.92-2.168-9.496-6.688-9.496
		c-3.064,0.128-5.72,2.168-6.632,5.096c-0.288,0.904-0.44,1.856-0.448,2.808v19.056h-5.48v-18.48c0-4.904-2.168-8.48-6.4-8.48
		c-4.232,0.496-7.416,4.088-7.392,8.344v18.608h-5.52L147.76,102.816L147.76,102.816z"/>
	<path style="fill:#415E72;" d="M70.136,198.4c-0.128-2.08,1.448-3.864,3.528-3.992c0.096-0.008,0.2-0.008,0.296-0.008
		c2.208-0.096,4.072,1.616,4.176,3.824s-1.616,4.072-3.824,4.176c-2.208,0.096-4.072-1.616-4.176-3.824
		C70.136,198.512,70.136,198.456,70.136,198.4z"/>
	<path style="fill:#415E72;" d="M84.648,179.2c0-3.2-0.064-5.8-0.248-8.352h4.968l0.32,5.104h0.128
		c2.056-3.672,5.984-5.904,10.192-5.8c4.272,0,10.896,2.544,10.896,13.128v18.4h-5.6v-17.736c0-4.968-1.84-9.112-7.136-9.112
		c-4.464,0.176-7.976,3.88-7.904,8.352v18.536h-5.6L84.648,179.2z"/>
	<path style="fill:#415E72;" d="M123.12,187.32c-0.472,5.44,3.552,10.224,8.992,10.696c0.528,0.048,1.056,0.048,1.584,0.008
		c2.928,0.088,5.84-0.456,8.536-1.6l0.952,4c-3.248,1.352-6.744,2-10.256,1.912c-7.896,0.512-14.712-5.472-15.224-13.368
		c-0.048-0.728-0.04-1.456,0.024-2.184c-0.92-8.216,5-15.616,13.216-16.536c0.416-0.048,0.832-0.072,1.248-0.088
		c7.216,0.128,12.96,6.08,12.832,13.296c-0.008,0.408-0.032,0.816-0.08,1.224c-0.008,0.872-0.072,1.752-0.192,2.616L123.12,187.32z
		 M139.56,183.32c0.616-4.376-2.432-8.424-6.808-9.032c-0.32-0.048-0.64-0.072-0.968-0.08c-4.776,0.36-8.496,4.304-8.584,9.096
		L139.56,183.32z"/>
	<path style="fill:#415E72;" d="M158.656,162.024v8.856h8v4.272h-8v16.632c0,3.824,1.088,5.984,4.2,5.984
		c1.096,0.016,2.184-0.112,3.248-0.384l0.256,4.208c-1.592,0.568-3.28,0.84-4.968,0.8c-2.272,0.128-4.48-0.744-6.048-2.392
		c-1.696-2.304-2.472-5.152-2.168-8v-16.8h-4.8v-4.32h4.8v-7.392L158.656,162.024z"/>
	<path style="fill:#415E72;" d="M70.136,274.824c-0.128-2.08,1.448-3.864,3.528-3.992c0.096-0.008,0.2-0.008,0.296-0.008
		c2.208-0.096,4.072,1.616,4.176,3.824s-1.616,4.072-3.824,4.176c-2.208,0.096-4.072-1.616-4.176-3.824
		C70.136,274.936,70.136,274.88,70.136,274.824z"/>
	<path style="fill:#415E72;" d="M112.568,262.464c0.72,8.296-5.416,15.6-13.704,16.32c-0.552,0.048-1.104,0.064-1.656,0.056
		c-8.096,0.104-14.752-6.368-14.856-14.472c-0.008-0.472,0.008-0.936,0.048-1.4c-0.728-8.28,5.392-15.592,13.672-16.32
		c0.536-0.048,1.072-0.064,1.616-0.056c8.064-0.184,14.744,6.2,14.928,14.264C112.632,261.392,112.616,261.928,112.568,262.464z
		 M88.096,262.776c0,6.76,3.88,11.848,9.368,11.848c5.352,0,9.368-5.032,9.368-12c0-5.224-2.616-11.848-9.24-11.848
		S88.096,256.92,88.096,262.776z"/>
	<path style="fill:#415E72;" d="M119.608,256.92c0-3.632-0.064-6.76-0.248-9.6h4.904l0.184,6.056h0.256
		c1.08-3.864,4.528-6.592,8.536-6.752c0.536-0.008,1.08,0.056,1.6,0.184v5.288c-0.632-0.136-1.272-0.192-1.912-0.184
		c-3.96,0.16-7.184,3.248-7.512,7.2c-0.16,0.864-0.248,1.736-0.256,2.616v16.44h-5.544L119.608,256.92z"/>
	<path style="fill:#415E72;" d="M166.504,247.288c-0.136,2.232-0.256,4.72-0.256,8.48v17.904c0.648,5.112-0.96,10.256-4.4,14.088
		c-3.144,2.584-7.136,3.896-11.2,3.696c-3.584,0.088-7.128-0.792-10.256-2.552l1.4-4.264c2.744,1.608,5.872,2.44,9.048,2.4
		c5.736,0,9.944-2.992,9.944-10.776v-3.44h-0.136c-2.104,3.368-5.848,5.344-9.816,5.168c-7.608-0.328-13.504-6.76-13.176-14.368
		c0.008-0.224,0.024-0.448,0.048-0.672c-0.88-8.128,4.992-15.432,13.112-16.312c0.256-0.024,0.512-0.048,0.776-0.064
		c3.968-0.224,7.704,1.864,9.6,5.352h0.128l0.256-4.656L166.504,247.288z M160.696,259.456c0.16-4.52-3.376-8.312-7.896-8.472
		c-0.088,0-0.176-0.008-0.264-0.008c-5.352,0-9.168,4.528-9.168,11.664c0,6.056,3.056,11.088,9.112,11.088
		c3.56-0.016,6.704-2.336,7.776-5.736c0.304-0.968,0.456-1.976,0.448-2.992L160.696,259.456z"/>
</g>
<rect x="232.8" y="92.504" style="fill:#E04F5F;" width="212.344" height="32"/>
<rect x="232.8" y="169.44" style="fill:#32BEA6;" width="89.096" height="32"/>
<rect x="232.8" y="246.312" style="fill:#AAC1CE;" width="170.528" height="32"/>
<g>
</g>
<g>
</g>
<g>
</g>
<g>
</g>
<g>
</g>
<g>
</g>
<g>
</g>
<g>
</g>
<g>
</g>
<g>
</g>
<g>
</g>
<g>
</g>
<g>
</g>
<g>
</g>
<g>
</g>
</svg>
